# xmcd
#
# Track frame offsets:
#	150
#	14658
#	27908
#	40172
#	54440
#	69864
#	89624
#	99320
#	112654
#	129036
#	143252
#	159274
#	172622
#	185370
#	198480
#	217108
#	230650
#	241730
#	267700
#	280430
#
# Disc length: 3931 seconds
#
# Revision: 1
# Processed by: cddbd v1.5.1PL0 Copyright (c) Steve Scherf et al.
# Submitted via: audiograbber 1.83.01
#
DISCID=070f5914
DTITLE=Zita - Chante J.R. Caussimon
DYEAR=2000
DGENRE=Chanson
TTITLE0=Barbarie-Barbara
TTITLE1=Le temps du tango
TTITLE2=Les belles nuits
TTITLE3=Le funambule
TTITLE4=Monsieur williams
TTITLE5=Nous deux
TTITLE6=enfants, vous n'avez plus de rose
TTITLE7=Galilée
TTITLE8=Le gauchisme  à la mode
TTITLE9=Comment ça marche
TTITLE10=Ma chanson des îles
TTITLE11=Bleu... Blanc... Rouge...
TTITLE12=Croisières
TTITLE13=Les drapeaux merveilleux
TTITLE14=La mer et l'océan
TTITLE15=Le Havre
TTITLE16=J'entends passer le temps
TTITLE17=Métaphysic Song
TTITLE18=La java de la Varennes
TTITLE19=Comme à Ostende
EXTD=
EXTT0=
EXTT1=
EXTT2=
EXTT3=
EXTT4=
EXTT5=
EXTT6=
EXTT7=
EXTT8=
EXTT9=
EXTT10=
EXTT11=
EXTT12=
EXTT13=
EXTT14=
EXTT15=
EXTT16=
EXTT17=
EXTT18=
EXTT19=
PLAYORDER=
